<svg width="755" height="80" viewBox="0 0 755 80" fill="none" xmlns="http://www.w3.org/2000/svg">
<path d="M8.63068 33.8636V35.6307H3.25568V45.5H1.14773V33.8636H8.63068ZM9.72017 45.5L9.70881 43.8068H10.0099C10.2372 43.8068 10.4285 43.7557 10.5838 43.6534C10.7391 43.5511 10.8679 43.3807 10.9702 43.142C11.0724 42.8996 11.152 42.5739 11.2088 42.1648C11.2656 41.7557 11.3054 41.2462 11.3281 40.6364L11.4815 36.7727H17.8452V45.5H15.8565V38.4602H13.3509L13.2145 41.2727C13.1804 42 13.099 42.6307 12.9702 43.1648C12.8452 43.6951 12.6671 44.1326 12.4361 44.4773C12.2088 44.822 11.9228 45.0795 11.5781 45.25C11.2334 45.4167 10.8262 45.5 10.3565 45.5H9.72017ZM22.4276 45.6761C21.8745 45.6761 21.3764 45.5777 20.9332 45.3807C20.4938 45.1799 20.1454 44.8845 19.8878 44.4943C19.634 44.1042 19.5071 43.6231 19.5071 43.0511C19.5071 42.5587 19.598 42.1515 19.7798 41.8295C19.9616 41.5076 20.2098 41.25 20.5241 41.0568C20.8385 40.8636 21.1927 40.7178 21.5866 40.6193C21.9844 40.517 22.3954 40.4432 22.8196 40.3977C23.331 40.3447 23.7457 40.2973 24.0639 40.2557C24.3821 40.2102 24.6132 40.142 24.7571 40.0511C24.9048 39.9564 24.9787 39.8106 24.9787 39.6136V39.5795C24.9787 39.1515 24.8518 38.8201 24.598 38.5852C24.3442 38.3504 23.9787 38.233 23.5014 38.233C22.9976 38.233 22.598 38.3428 22.3026 38.5625C22.0109 38.7822 21.8139 39.0417 21.7116 39.3409L19.7912 39.0682C19.9427 38.5379 20.1927 38.0947 20.5412 37.7386C20.8897 37.3788 21.3158 37.1098 21.8196 36.9318C22.3234 36.75 22.8802 36.6591 23.4901 36.6591C23.9105 36.6591 24.3291 36.7083 24.7457 36.8068C25.1624 36.9053 25.5431 37.0682 25.8878 37.2955C26.2325 37.5189 26.509 37.8239 26.7173 38.2102C26.9295 38.5966 27.0355 39.0795 27.0355 39.6591V45.5H25.0582V44.3011H24.9901C24.8651 44.5436 24.6889 44.7708 24.4616 44.983C24.2382 45.1913 23.956 45.3598 23.6151 45.4886C23.2779 45.6136 22.8821 45.6761 22.4276 45.6761ZM22.9616 44.1648C23.3745 44.1648 23.7325 44.0833 24.0355 43.9205C24.3385 43.7538 24.5715 43.5341 24.7344 43.2614C24.901 42.9886 24.9844 42.6913 24.9844 42.3693V41.3409C24.92 41.3939 24.8101 41.4432 24.6548 41.4886C24.5033 41.5341 24.3329 41.5739 24.1435 41.608C23.9541 41.642 23.7666 41.6723 23.581 41.6989C23.3954 41.7254 23.2344 41.7481 23.098 41.767C22.7912 41.8087 22.5166 41.8769 22.2741 41.9716C22.0317 42.0663 21.8404 42.1989 21.7003 42.3693C21.5601 42.536 21.4901 42.7519 21.4901 43.017C21.4901 43.3958 21.6283 43.6818 21.9048 43.875C22.1813 44.0682 22.5336 44.1648 22.9616 44.1648ZM29.1037 45.5V36.7727H32.7685C33.8026 36.7727 34.6188 36.9792 35.2173 37.392C35.8196 37.8049 36.1207 38.3807 36.1207 39.1193C36.1207 39.608 35.9503 40.0076 35.6094 40.3182C35.2723 40.625 34.812 40.8314 34.2287 40.9375C34.687 40.9754 35.0885 41.0909 35.4332 41.2841C35.7817 41.4773 36.0545 41.7311 36.2514 42.0455C36.4484 42.3598 36.5469 42.7216 36.5469 43.1307C36.5469 43.6117 36.42 44.0303 36.1662 44.3864C35.9162 44.7386 35.5507 45.0133 35.0696 45.2102C34.5923 45.4034 34.0128 45.5 33.331 45.5H29.1037ZM31.0298 43.8807H33.331C33.7098 43.8807 34.0071 43.7917 34.223 43.6136C34.4389 43.4318 34.5469 43.1856 34.5469 42.875C34.5469 42.5152 34.4389 42.233 34.223 42.0284C34.0071 41.8201 33.7098 41.7159 33.331 41.7159H31.0298V43.8807ZM31.0298 40.3864H32.8082C33.0885 40.3864 33.3291 40.3466 33.5298 40.267C33.7306 40.1837 33.884 40.0682 33.9901 39.9205C34.0961 39.7689 34.1491 39.589 34.1491 39.3807C34.1491 39.0814 34.026 38.8466 33.7798 38.6761C33.5374 38.5057 33.2003 38.4205 32.7685 38.4205H31.0298V40.3864ZM44.2386 40.2841V41.9716H39.5909V40.2841H44.2386ZM40.2273 36.7727V45.5H38.2443V36.7727H40.2273ZM45.5852 36.7727V45.5H43.608V36.7727H45.5852ZM50.1776 45.6761C49.6245 45.6761 49.1264 45.5777 48.6832 45.3807C48.2438 45.1799 47.8954 44.8845 47.6378 44.4943C47.384 44.1042 47.2571 43.6231 47.2571 43.0511C47.2571 42.5587 47.348 42.1515 47.5298 41.8295C47.7116 41.5076 47.9598 41.25 48.2741 41.0568C48.5885 40.8636 48.9427 40.7178 49.3366 40.6193C49.7344 40.517 50.1454 40.4432 50.5696 40.3977C51.081 40.3447 51.4957 40.2973 51.8139 40.2557C52.1321 40.2102 52.3632 40.142 52.5071 40.0511C52.6548 39.9564 52.7287 39.8106 52.7287 39.6136V39.5795C52.7287 39.1515 52.6018 38.8201 52.348 38.5852C52.0942 38.3504 51.7287 38.233 51.2514 38.233C50.7476 38.233 50.348 38.3428 50.0526 38.5625C49.7609 38.7822 49.5639 39.0417 49.4616 39.3409L47.5412 39.0682C47.6927 38.5379 47.9427 38.0947 48.2912 37.7386C48.6397 37.3788 49.0658 37.1098 49.5696 36.9318C50.0734 36.75 50.6302 36.6591 51.2401 36.6591C51.6605 36.6591 52.0791 36.7083 52.4957 36.8068C52.9124 36.9053 53.2931 37.0682 53.6378 37.2955C53.9825 37.5189 54.259 37.8239 54.4673 38.2102C54.6795 38.5966 54.7855 39.0795 54.7855 39.6591V45.5H52.8082V44.3011H52.7401C52.6151 44.5436 52.4389 44.7708 52.2116 44.983C51.9882 45.1913 51.706 45.3598 51.3651 45.4886C51.0279 45.6136 50.6321 45.6761 50.1776 45.6761ZM50.7116 44.1648C51.1245 44.1648 51.4825 44.0833 51.7855 43.9205C52.0885 43.7538 52.3215 43.5341 52.4844 43.2614C52.651 42.9886 52.7344 42.6913 52.7344 42.3693V41.3409C52.67 41.3939 52.5601 41.4432 52.4048 41.4886C52.2533 41.5341 52.0829 41.5739 51.8935 41.608C51.7041 41.642 51.5166 41.6723 51.331 41.6989C51.1454 41.7254 50.9844 41.7481 50.848 41.767C50.5412 41.8087 50.2666 41.8769 50.0241 41.9716C49.7817 42.0663 49.5904 42.1989 49.4503 42.3693C49.3101 42.536 49.2401 42.7519 49.2401 43.017C49.2401 43.3958 49.3783 43.6818 49.6548 43.875C49.9313 44.0682 50.2836 44.1648 50.7116 44.1648ZM62.0128 45.5V38.4432H60.1491C59.6757 38.4432 59.312 38.553 59.0582 38.7727C58.8045 38.9924 58.6795 39.2652 58.6832 39.5909C58.6795 39.9167 58.7988 40.1856 59.0412 40.3977C59.2836 40.6098 59.6302 40.7159 60.081 40.7159H62.6605V42.2159H60.081C59.384 42.2159 58.7817 42.1061 58.2741 41.8864C57.7666 41.6667 57.3764 41.3561 57.1037 40.9545C56.831 40.553 56.6946 40.0833 56.6946 39.5455C56.6946 38.9848 56.8329 38.4981 57.1094 38.0852C57.3897 37.6686 57.7874 37.3466 58.3026 37.1193C58.8215 36.8883 59.437 36.7727 60.1491 36.7727H63.9389V45.5H62.0128ZM56.3764 45.5L58.8139 41.0227H60.8423L58.3991 45.5H56.3764Z" fill="#F9FAFB"/>
<path d="M100.545 39.6818C100.545 40.9356 100.311 42.0095 99.8409 42.9034C99.375 43.7936 98.7386 44.4754 97.9318 44.9489C97.1288 45.4223 96.2178 45.6591 95.1989 45.6591C94.1799 45.6591 93.267 45.4223 92.4602 44.9489C91.6572 44.4716 91.0208 43.7879 90.5511 42.8977C90.0852 42.0038 89.8523 40.9318 89.8523 39.6818C89.8523 38.428 90.0852 37.3561 90.5511 36.4659C91.0208 35.572 91.6572 34.8883 92.4602 34.4148C93.267 33.9413 94.1799 33.7045 95.1989 33.7045C96.2178 33.7045 97.1288 33.9413 97.9318 34.4148C98.7386 34.8883 99.375 35.572 99.8409 36.4659C100.311 37.3561 100.545 38.428 100.545 39.6818ZM98.4261 39.6818C98.4261 38.7992 98.2879 38.0549 98.0114 37.4489C97.7386 36.839 97.3598 36.3788 96.875 36.0682C96.3902 35.7538 95.8314 35.5966 95.1989 35.5966C94.5663 35.5966 94.0076 35.7538 93.5227 36.0682C93.0379 36.3788 92.6572 36.839 92.3807 37.4489C92.108 38.0549 91.9716 38.7992 91.9716 39.6818C91.9716 40.5644 92.108 41.3106 92.3807 41.9205C92.6572 42.5265 93.0379 42.9867 93.5227 43.3011C94.0076 43.6117 94.5663 43.767 95.1989 43.767C95.8314 43.767 96.3902 43.6117 96.875 43.3011C97.3598 42.9867 97.7386 42.5265 98.0114 41.9205C98.2879 41.3106 98.4261 40.5644 98.4261 39.6818ZM106.416 45.5V36.7727H108.473V40.2955H109.223L111.848 36.7727H114.325L111.092 41.0568L114.359 45.5H111.871L109.479 42.2102H108.473V45.5H106.416ZM118.973 45.6705C118.121 45.6705 117.382 45.483 116.757 45.108C116.132 44.733 115.647 44.2083 115.303 43.5341C114.962 42.8598 114.791 42.072 114.791 41.1705C114.791 40.2689 114.962 39.4792 115.303 38.8011C115.647 38.1231 116.132 37.5966 116.757 37.2216C117.382 36.8466 118.121 36.6591 118.973 36.6591C119.825 36.6591 120.564 36.8466 121.189 37.2216C121.814 37.5966 122.297 38.1231 122.638 38.8011C122.982 39.4792 123.155 40.2689 123.155 41.1705C123.155 42.072 122.982 42.8598 122.638 43.5341C122.297 44.2083 121.814 44.733 121.189 45.108C120.564 45.483 119.825 45.6705 118.973 45.6705ZM118.984 44.0227C119.446 44.0227 119.833 43.8958 120.143 43.642C120.454 43.3845 120.685 43.0398 120.837 42.608C120.992 42.1761 121.07 41.6951 121.07 41.1648C121.07 40.6307 120.992 40.1477 120.837 39.7159C120.685 39.2803 120.454 38.9337 120.143 38.6761C119.833 38.4186 119.446 38.2898 118.984 38.2898C118.511 38.2898 118.117 38.4186 117.803 38.6761C117.492 38.9337 117.259 39.2803 117.104 39.7159C116.952 40.1477 116.876 40.6307 116.876 41.1648C116.876 41.6951 116.952 42.1761 117.104 42.608C117.259 43.0398 117.492 43.3845 117.803 43.642C118.117 43.8958 118.511 44.0227 118.984 44.0227ZM129.923 43.108L132.514 36.7727H134.173L130.645 45.5H129.207L125.759 36.7727H127.401L129.923 43.108ZM126.884 36.7727V45.5H124.901V36.7727H126.884ZM133.048 45.5V36.7727H135.014V45.5H133.048ZM137.088 45.5V36.7727H144.457V45.5H142.474V38.4602H139.054V45.5H137.088ZM149.084 45.6761C148.531 45.6761 148.033 45.5777 147.589 45.3807C147.15 45.1799 146.802 44.8845 146.544 44.4943C146.29 44.1042 146.163 43.6231 146.163 43.0511C146.163 42.5587 146.254 42.1515 146.436 41.8295C146.618 41.5076 146.866 41.25 147.18 41.0568C147.495 40.8636 147.849 40.7178 148.243 40.6193C148.641 40.517 149.052 40.4432 149.476 40.3977C149.987 40.3447 150.402 40.2973 150.72 40.2557C151.038 40.2102 151.269 40.142 151.413 40.0511C151.561 39.9564 151.635 39.8106 151.635 39.6136V39.5795C151.635 39.1515 151.508 38.8201 151.254 38.5852C151 38.3504 150.635 38.233 150.158 38.233C149.654 38.233 149.254 38.3428 148.959 38.5625C148.667 38.7822 148.47 39.0417 148.368 39.3409L146.447 39.0682C146.599 38.5379 146.849 38.0947 147.197 37.7386C147.546 37.3788 147.972 37.1098 148.476 36.9318C148.98 36.75 149.536 36.6591 150.146 36.6591C150.567 36.6591 150.985 36.7083 151.402 36.8068C151.819 36.9053 152.199 37.0682 152.544 37.2955C152.889 37.5189 153.165 37.8239 153.374 38.2102C153.586 38.5966 153.692 39.0795 153.692 39.6591V45.5H151.714V44.3011H151.646C151.521 44.5436 151.345 44.7708 151.118 44.983C150.894 45.1913 150.612 45.3598 150.271 45.4886C149.934 45.6136 149.538 45.6761 149.084 45.6761ZM149.618 44.1648C150.031 44.1648 150.389 44.0833 150.692 43.9205C150.995 43.7538 151.228 43.5341 151.391 43.2614C151.557 42.9886 151.641 42.6913 151.641 42.3693V41.3409C151.576 41.3939 151.466 41.4432 151.311 41.4886C151.16 41.5341 150.989 41.5739 150.8 41.608C150.61 41.642 150.423 41.6723 150.237 41.6989C150.052 41.7254 149.891 41.7481 149.754 41.767C149.447 41.8087 149.173 41.8769 148.93 41.9716C148.688 42.0663 148.497 42.1989 148.357 42.3693C148.216 42.536 148.146 42.7519 148.146 43.017C148.146 43.3958 148.285 43.6818 148.561 43.875C148.838 44.0682 149.19 44.1648 149.618 44.1648ZM161.754 40.2841V41.9716H157.107V40.2841H161.754ZM157.743 36.7727V45.5H155.76V36.7727H157.743ZM163.101 36.7727V45.5H161.124V36.7727H163.101ZM167.165 42.7159L170.659 36.7727H172.773V45.5H170.784V39.5511L167.301 45.5H165.182V36.7727H167.165V42.7159ZM176.868 42.7159L180.362 36.7727H182.476V45.5H180.487V39.5511L177.004 45.5H174.885V36.7727H176.868V42.7159Z" fill="#F9FAFB"/>
<path d="M216.119 45.5L212.29 40.4148H211.256V45.5H209.148V33.8636H211.256V38.6477H211.784L215.92 33.8636H218.517L213.92 39.1705L218.716 45.5H216.119ZM222.568 45.6761C222.015 45.6761 221.517 45.5777 221.074 45.3807C220.634 45.1799 220.286 44.8845 220.028 44.4943C219.775 44.1042 219.648 43.6231 219.648 43.0511C219.648 42.5587 219.739 42.1515 219.92 41.8295C220.102 41.5076 220.35 41.25 220.665 41.0568C220.979 40.8636 221.333 40.7178 221.727 40.6193C222.125 40.517 222.536 40.4432 222.96 40.3977C223.472 40.3447 223.886 40.2973 224.205 40.2557C224.523 40.2102 224.754 40.142 224.898 40.0511C225.045 39.9564 225.119 39.8106 225.119 39.6136V39.5795C225.119 39.1515 224.992 38.8201 224.739 38.5852C224.485 38.3504 224.119 38.233 223.642 38.233C223.138 38.233 222.739 38.3428 222.443 38.5625C222.152 38.7822 221.955 39.0417 221.852 39.3409L219.932 39.0682C220.083 38.5379 220.333 38.0947 220.682 37.7386C221.03 37.3788 221.456 37.1098 221.96 36.9318C222.464 36.75 223.021 36.6591 223.631 36.6591C224.051 36.6591 224.47 36.7083 224.886 36.8068C225.303 36.9053 225.684 37.0682 226.028 37.2955C226.373 37.5189 226.65 37.8239 226.858 38.2102C227.07 38.5966 227.176 39.0795 227.176 39.6591V45.5H225.199V44.3011H225.131C225.006 44.5436 224.83 44.7708 224.602 44.983C224.379 45.1913 224.097 45.3598 223.756 45.4886C223.419 45.6136 223.023 45.6761 222.568 45.6761ZM223.102 44.1648C223.515 44.1648 223.873 44.0833 224.176 43.9205C224.479 43.7538 224.712 43.5341 224.875 43.2614C225.042 42.9886 225.125 42.6913 225.125 42.3693V41.3409C225.061 41.3939 224.951 41.4432 224.795 41.4886C224.644 41.5341 224.473 41.5739 224.284 41.608C224.095 41.642 223.907 41.6723 223.722 41.6989C223.536 41.7254 223.375 41.7481 223.239 41.767C222.932 41.8087 222.657 41.8769 222.415 41.9716C222.172 42.0663 221.981 42.1989 221.841 42.3693C221.701 42.536 221.631 42.7519 221.631 43.017C221.631 43.3958 221.769 43.6818 222.045 43.875C222.322 44.0682 222.674 44.1648 223.102 44.1648ZM228.267 38.4602V36.7727H235.903V38.4602H233.08V45.5H231.091V38.4602H228.267ZM239.693 45.6761C239.14 45.6761 238.642 45.5777 238.199 45.3807C237.759 45.1799 237.411 44.8845 237.153 44.4943C236.9 44.1042 236.773 43.6231 236.773 43.0511C236.773 42.5587 236.864 42.1515 237.045 41.8295C237.227 41.5076 237.475 41.25 237.79 41.0568C238.104 40.8636 238.458 40.7178 238.852 40.6193C239.25 40.517 239.661 40.4432 240.085 40.3977C240.597 40.3447 241.011 40.2973 241.33 40.2557C241.648 40.2102 241.879 40.142 242.023 40.0511C242.17 39.9564 242.244 39.8106 242.244 39.6136V39.5795C242.244 39.1515 242.117 38.8201 241.864 38.5852C241.61 38.3504 241.244 38.233 240.767 38.233C240.263 38.233 239.864 38.3428 239.568 38.5625C239.277 38.7822 239.08 39.0417 238.977 39.3409L237.057 39.0682C237.208 38.5379 237.458 38.0947 237.807 37.7386C238.155 37.3788 238.581 37.1098 239.085 36.9318C239.589 36.75 240.146 36.6591 240.756 36.6591C241.176 36.6591 241.595 36.7083 242.011 36.8068C242.428 36.9053 242.809 37.0682 243.153 37.2955C243.498 37.5189 243.775 37.8239 243.983 38.2102C244.195 38.5966 244.301 39.0795 244.301 39.6591V45.5H242.324V44.3011H242.256C242.131 44.5436 241.955 44.7708 241.727 44.983C241.504 45.1913 241.222 45.3598 240.881 45.4886C240.544 45.6136 240.148 45.6761 239.693 45.6761ZM240.227 44.1648C240.64 44.1648 240.998 44.0833 241.301 43.9205C241.604 43.7538 241.837 43.5341 242 43.2614C242.167 42.9886 242.25 42.6913 242.25 42.3693V41.3409C242.186 41.3939 242.076 41.4432 241.92 41.4886C241.769 41.5341 241.598 41.5739 241.409 41.608C241.22 41.642 241.032 41.6723 240.847 41.6989C240.661 41.7254 240.5 41.7481 240.364 41.767C240.057 41.8087 239.782 41.8769 239.54 41.9716C239.297 42.0663 239.106 42.1989 238.966 42.3693C238.826 42.536 238.756 42.7519 238.756 43.017C238.756 43.3958 238.894 43.6818 239.17 43.875C239.447 44.0682 239.799 44.1648 240.227 44.1648ZM245.767 45.5L245.756 43.8068H246.057C246.284 43.8068 246.475 43.7557 246.631 43.6534C246.786 43.5511 246.915 43.3807 247.017 43.142C247.119 42.8996 247.199 42.5739 247.256 42.1648C247.313 41.7557 247.352 41.2462 247.375 40.6364L247.528 36.7727H253.892V45.5H251.903V38.4602H249.398L249.261 41.2727C249.227 42 249.146 42.6307 249.017 43.1648C248.892 43.6951 248.714 44.1326 248.483 44.4773C248.256 44.822 247.97 45.0795 247.625 45.25C247.28 45.4167 246.873 45.5 246.403 45.5H245.767ZM259.77 45.6705C258.918 45.6705 258.179 45.483 257.554 45.108C256.929 44.733 256.444 44.2083 256.099 43.5341C255.759 42.8598 255.588 42.072 255.588 41.1705C255.588 40.2689 255.759 39.4792 256.099 38.8011C256.444 38.1231 256.929 37.5966 257.554 37.2216C258.179 36.8466 258.918 36.6591 259.77 36.6591C260.622 36.6591 261.361 36.8466 261.986 37.2216C262.611 37.5966 263.094 38.1231 263.435 38.8011C263.779 39.4792 263.952 40.2689 263.952 41.1705C263.952 42.072 263.779 42.8598 263.435 43.5341C263.094 44.2083 262.611 44.733 261.986 45.108C261.361 45.483 260.622 45.6705 259.77 45.6705ZM259.781 44.0227C260.243 44.0227 260.63 43.8958 260.94 43.642C261.251 43.3845 261.482 43.0398 261.634 42.608C261.789 42.1761 261.866 41.6951 261.866 41.1648C261.866 40.6307 261.789 40.1477 261.634 39.7159C261.482 39.2803 261.251 38.9337 260.94 38.6761C260.63 38.4186 260.243 38.2898 259.781 38.2898C259.308 38.2898 258.914 38.4186 258.599 38.6761C258.289 38.9337 258.056 39.2803 257.901 39.7159C257.749 40.1477 257.673 40.6307 257.673 41.1648C257.673 41.6951 257.749 42.1761 257.901 42.608C258.056 43.0398 258.289 43.3845 258.599 43.642C258.914 43.8958 259.308 44.0227 259.781 44.0227ZM271.47 36.7727V38.4602H267.709V45.5H265.697V36.7727H271.47Z" fill="#F9FAFB"/>
</svg>
